<svg display="none" xmlns="http://www.w3.org/2000/svg">
        <symbol id="calendar" viewBox="0 0 24 24">
            <path
                d="M7 11C7 10.4477 7.44772 10 8 10C8.55228 10 9 10.4477 9 11C9 11.5523 8.55228 12 8 12C7.44772 12 7 11.5523 7 11Z" />
            <path
                d="M7 16C7 15.4477 7.44772 15 8 15C8.55228 15 9 15.4477 9 16C9 16.5523 8.55228 17 8 17C7.44772 17 7 16.5523 7 16Z" />
            <path
                d="M11 11C11 10.4477 11.4477 10 12 10C12.5523 10 13 10.4477 13 11C13 11.5523 12.5523 12 12 12C11.4477 12 11 11.5523 11 11Z" />
            <path
                d="M11 16C11 15.4477 11.4477 15 12 15C12.5523 15 13 15.4477 13 16C13 16.5523 12.5523 17 12 17C11.4477 17 11 16.5523 11 16Z" />
            <path
                d="M15 11C15 10.4477 15.4477 10 16 10C16.5523 10 17 10.4477 17 11C17 11.5523 16.5523 12 16 12C15.4477 12 15 11.5523 15 11Z" />
            <path
                d="M15 16C15 15.4477 15.4477 15 16 15C16.5523 15 17 15.4477 17 16C17 16.5523 16.5523 17 16 17C15.4477 17 15 16.5523 15 16Z" />
            <path
                d="M8 2C8.55228 2 9 2.44772 9 3V4H15V3C15 2.44772 15.4477 2 16 2C16.5523 2 17 2.44772 17 3V4C19.7614 4 22 6.23858 22 9V17C22 19.7614 19.7614 22 17 22H7C4.23858 22 2 19.7614 2 17V9C2 6.23858 4.23858 4 7 4V3C7 2.44772 7.44772 2 8 2ZM7 6C5.34315 6 4 7.34315 4 9V17C4 18.6569 5.34315 20 7 20H17C18.6569 20 20 18.6569 20 17V9C20 7.34315 18.6569 6 17 6C17 6.55229 16.5523 7 16 7C15.4477 7 15 6.55229 15 6H9C9 6.55229 8.55228 7 8 7C7.44772 7 7 6.55229 7 6Z" />
        </symbol>

        <symbol id="open-mail" viewBox="0 0 24 24">
          <path fill-rule="evenodd" clip-rule="evenodd" d="M20 19C20 19.5523 19.5523 20 19 20H5C4.44772 20 4 19.5523 4 19V11.2268L10.0069 16.5663C11.1436 17.5767 12.8564 17.5767 13.9931 16.5663L20 11.2268V19ZM4.56205 8.99999H19.438L12.6402 3.33519C12.2693 3.02615 11.7307 3.02615 11.3598 3.33519L4.56205 8.99999ZM6.7552 11L11.3356 15.0715C11.7145 15.4083 12.2855 15.4083 12.6644 15.0715L17.2448 11H6.7552ZM19 22C20.6569 22 22 20.6568 22 19V8.99999C22 8.70321 21.8682 8.42177 21.6402 8.23177L13.9206 1.79875C12.808 0.871631 11.192 0.871633 10.0794 1.79875L2.35982 8.23177C2.13182 8.42177 2 8.70321 2 8.99999V19C2 20.6568 3.34315 22 5 22H19Z" />
        </symbol>

        <symbol id="compass" viewBox="0 0 32 32">
            <path
                d="M22.912 8.758l-9.786 4.207c-0.177 0.090-0.32 0.233-0.411 0.411l-4.483 9.038c-0.184 0.36-0.117 0.798 0.166 1.087 0.181 0.184 0.426 0.282 0.673 0.282 0.139 0 0.279-0.030 0.41-0.094l9.554-3.968c0.175-0.084 0.32-0.221 0.413-0.391l4.715-9.278c0.201-0.363 0.141-0.813-0.145-1.111-0.288-0.298-0.737-0.371-1.105-0.184zM11.183 20.776l2.719-5.553 2.746 3.437zM18.272 17.488l-2.775-3.473 5.525-2.18zM16 0c-8.836 0-16 7.163-16 16s7.163 16 16 16c8.837 0 16-7.163 16-16s-7.163-16-16-16zM16 30.032c-7.72 0-14-6.312-14-14.032s6.28-14 14-14 14 6.28 14 14-6.28 14.032-14 14.032z">
            </path>
        </symbol>
    </svg>